<svg height="512" viewBox="0 0 64 64" width="512" xmlns="http://www.w3.org/2000/svg"><path d="m44 18a3 3 0 1 0 3 3 3 3 0 0 0 -3-3zm0 4a1 1 0 1 1 1-1 1 1 0 0 1 -1 1z"/><path d="m43 26h2v2h-2z"/><path d="m39 11h2v2h-2z"/><path d="m47 11h2v2h-2z"/><path d="m62 11h-2a2 2 0 0 1 -4 0h-2a3.982 3.982 0 0 0 1.619 3.2 2.972 2.972 0 0 0 -.619 1.8v3h-4a1 1 0 0 0 -.1-.447l-1.282-2.553h.382a3 3 0 0 0 3-3v-2a3 3 0 0 0 -2-2.816v-3.684a2.5 2.5 0 0 0 -5 0v3.5h-4v-3.5a2.5 2.5 0 0 0 -5 0v3.684a3 3 0 0 0 -2 2.816v2a3 3 0 0 0 3 3h.382l-1.282 2.553a1 1 0 0 0 -.1.447h-4v-3a2.972 2.972 0 0 0 -.619-1.8 3.984 3.984 0 0 0 1.619-3.2h-2a2 2 0 0 1 -4 0h-2a3.984 3.984 0 0 0 1.619 3.2 2.972 2.972 0 0 0 -.619 1.8v6a3 3 0 0 0 3 3h7v1.586l-.707.707a1 1 0 0 0 -.293.707v2a1 1 0 0 0 .293.707l1 1a1 1 0 0 0 .707.293h1v7a2.966 2.966 0 0 0 .184 1h-35.184v-25a3 3 0 0 1 3-3h17v-2h-17a5.006 5.006 0 0 0 -5 5v30a5.006 5.006 0 0 0 5 5h12.867l-.75 6h-2.117a2 2 0 0 0 -2 2v2a2 2 0 0 0 2 2h22a2 2 0 0 0 2-2v-2a2 2 0 0 0 -2-2h-2.117l-.75-6h12.867a5.006 5.006 0 0 0 5-5v-12h-2v7h-3.184a2.966 2.966 0 0 0 .184-1v-7h1a1 1 0 0 0 .707-.293l1-1a1 1 0 0 0 .293-.707v-2a1 1 0 0 0 -.293-.707l-.707-.707v-1.586h7a3 3 0 0 0 3-3v-6a2.972 2.972 0 0 0 -.619-1.8 3.982 3.982 0 0 0 1.619-3.2zm-14-6.5a.5.5 0 0 1 1 0v3.5h-1zm-8.5-.5a.5.5 0 0 1 .5.5v3.5h-1v-3.5a.5.5 0 0 1 .5-.5zm-2.5 9v-2a1 1 0 0 1 1-1h12a1 1 0 0 1 1 1v2a1 1 0 0 1 -1 1h-12a1 1 0 0 1 -1-1zm-6 3v3.184a2.809 2.809 0 0 0 -2 0v-3.184a1 1 0 0 1 2 0zm-2 6a1 1 0 1 1 1 1 1 1 0 0 1 -1-1zm3.816 1a2.809 2.809 0 0 0 0-2h4.184v2zm6.184 37h-22v-2h22zm-4.133-4h-13.734l.75-6h12.234zm17.133-11a3 3 0 0 1 -3 3h-42a3 3 0 0 1 -3-3v-3h48zm-5-12h-2v2h2v2h-2v2h2a1 1 0 0 1 -1 1h-4a1 1 0 0 1 -1-1h2v-2h-2v-2h2v-2h-2v-1h6zm3-3.414-.414.414h-11.172l-.414-.414v-1.172l.707-.707a1 1 0 0 0 .293-.707v-7.764l1.618-3.236h6.764l1.618 3.236v7.764a1 1 0 0 0 .293.707l.707.707zm1-8.586h4.184a2.809 2.809 0 0 0 0 2h-4.184zm7 2a1 1 0 1 1 1-1 1 1 0 0 1 -1 1zm1-7v3.184a2.809 2.809 0 0 0 -2 0v-3.184a1 1 0 0 1 2 0z"/><path d="m46 44h2v2h-2z"/><path d="m11.293 14.293-3 3a1 1 0 0 0 0 1.414l3 3 1.414-1.414-2.293-2.293 2.293-2.293z"/><path d="m12.228 17h8.544v2h-8.544z" transform="matrix(.351 -.936 .936 .351 -6.147 27.129)"/><path d="m20.293 15.707 2.293 2.293-2.293 2.293 1.414 1.414 3-3a1 1 0 0 0 0-1.414l-3-3z"/><path d="m8 26h4v2h-4z"/><path d="m14 26h10v2h-10z"/><path d="m10 30h4v2h-4z"/><path d="m16 30h10v2h-10z"/><path d="m28 30h2v2h-2z"/><path d="m10 34h4v2h-4z"/><path d="m16 34h10v2h-10z"/><path d="m28 34h2v2h-2z"/></svg>